<?xml version="1.0" encoding="utf-8"?>
<!-- Generator: Adobe Illustrator 23.0.0, SVG Export Plug-In . SVG Version: 6.00 Build 0)  -->
<svg version="1.1" id="Capa_1" xmlns="http://www.w3.org/2000/svg" xmlns:xlink="http://www.w3.org/1999/xlink" x="0px" y="0px"
	 viewBox="0 0 250 250" style="enable-background:new 0 0 250 250;" xml:space="preserve">
<g>
	<rect x="1.9" y="139" width="38.5" height="7.7"/>
	<rect x="209.7" y="139" width="38.5" height="7.7"/>
	<rect x="121.2" y="15.9" width="7.7" height="42.3"/>
	<path d="M53,91.7L22.2,60.9l5.4-5.4l30.8,30.8L53,91.7z"/>
	<path d="M227.8,60.9L197,91.7l-5.4-5.4l30.8-30.8L227.8,60.9z"/>
	<polygon points="100.8,200.6 95.3,206.6 122.3,234.1 127.7,234.1 154.7,206.6 149.2,200.9 125,225 	"/>
	<path d="M202,142.9c0-42.4-34.5-77-77-77s-77,34.5-77,77c0,12.1,2.9,23.9,8.3,34.6H1.9v7.7h246.3v-7.7h-54.4
		C199.1,166.8,202,155,202,142.9z M55.7,142.9c0-38.2,31.1-69.3,69.3-69.3s69.3,31.1,69.3,69.3c0,12.2-3.2,24.1-9.3,34.6H65.1
		C59,167,55.7,155.1,55.7,142.9z"/>
</g>
</svg>
