<?xml version="1.0" encoding="utf-8"?>
<!-- Generator: Adobe Illustrator 23.0.0, SVG Export Plug-In . SVG Version: 6.00 Build 0)  -->
<svg version="1.1" id="Capa_1" xmlns="http://www.w3.org/2000/svg" xmlns:xlink="http://www.w3.org/1999/xlink" x="0px" y="0px"
	 viewBox="0 0 250 250" style="enable-background:new 0 0 250 250;" xml:space="preserve">
<g>
	<path d="M125,182.4c31.6,0,57.4-25.7,57.4-57.4S156.6,67.6,125,67.6S67.6,93.4,67.6,125S93.4,182.4,125,182.4z M125,74.4
		c27.9,0,50.6,22.7,50.6,50.6s-22.7,50.6-50.6,50.6S74.4,152.9,74.4,125S97.1,74.4,125,74.4z"/>
	<rect x="121.6" y="17" width="6.7" height="33.7"/>
	<rect x="121.6" y="199.2" width="6.7" height="33.7"/>
	<rect x="199.2" y="121.6" width="33.7" height="6.7"/>
	<rect x="17" y="121.6" width="33.7" height="6.7"/>
	<path d="M181.4,73.4l-4.8-4.8l16.9-16.9l4.8,4.8L181.4,73.4z"/>
	<path d="M56.5,198.2l-4.8-4.8l16.9-16.9l4.8,4.8L56.5,198.2z"/>
	<path d="M181.4,176.6l16.9,16.9l-4.8,4.8l-16.9-16.9L181.4,176.6z"/>
	<path d="M68.6,73.4L51.8,56.5l4.8-4.8l16.9,16.9L68.6,73.4z"/>
</g>
</svg>
