<?xml version="1.0" encoding="utf-8"?>
<!-- Generator: Adobe Illustrator 23.0.0, SVG Export Plug-In . SVG Version: 6.00 Build 0)  -->
<svg version="1.1" id="Capa_1" xmlns="http://www.w3.org/2000/svg" xmlns:xlink="http://www.w3.org/1999/xlink" x="0px" y="0px"
	 viewBox="0 0 250 250" style="enable-background:new 0 0 250 250;" xml:space="preserve">
<style type="text/css">
	.st0{fill:#136EC2;}
	.st1{opacity:0.22;fill:#136EC2;}
	.st2{fill:#0599D5;}
	.st3{fill:#15CCD5;}
</style>
<g>
	<g>
		<g>
			<g>
				<path class="st2" d="M97.9,80.4c0-1.7-1.3-3-3-3c-1.7,0-3,1.3-3,3v5c0,1.7,1.3,3,3,3c1.7,0,3-1.3,3-3V80.4z"/>
				<path class="st2" d="M222.4,124.9c1.7,0,3-1.3,3-3v-17.5c0,0,0,0,0-0.1c0,0,0-0.1,0-0.1c0,0,0,0,0-0.1c0,0,0-0.1,0-0.1
					c0,0,0-0.1,0-0.1c0,0,0,0,0-0.1c0,0,0-0.1,0-0.1c0,0,0-0.1,0-0.1c0,0,0,0,0-0.1c0,0,0-0.1,0-0.1c0,0,0-0.1,0-0.1c0,0,0,0,0-0.1
					c0,0,0-0.1-0.1-0.1c0,0,0,0,0-0.1c0,0,0,0,0-0.1c0,0,0-0.1-0.1-0.1c0,0,0,0,0-0.1c0,0,0,0,0,0c0,0,0,0,0,0c0,0,0,0,0-0.1
					c0,0-0.1-0.1-0.1-0.1c0,0,0,0,0-0.1c0,0,0,0,0,0c0,0,0,0,0,0c0,0-0.1-0.1-0.1-0.1c0,0,0-0.1-0.1-0.1c0,0,0,0,0,0
					c0,0-0.1-0.1-0.1-0.1c0,0-0.1-0.1-0.1-0.1c0,0,0,0,0,0l-35-30V61.5c0-7.4-6-13.5-13.5-13.5h-14.7l-25.3-21.7
					c-6.3-5.4-15.4-5.4-21.7,0L88.9,48H74.2c-7.4,0-13.5,6-13.5,13.5v10.6l-35,30c0,0,0,0,0,0c0,0-0.1,0.1-0.1,0.1
					c0,0-0.1,0.1-0.1,0.1c0,0,0,0,0,0c0,0,0,0.1-0.1,0.1c0,0-0.1,0.1-0.1,0.1c0,0,0,0,0,0c0,0,0,0,0,0c0,0,0,0,0,0.1
					c0,0-0.1,0.1-0.1,0.1c0,0,0,0,0,0.1c0,0,0,0,0,0c0,0,0,0,0,0c0,0,0,0,0,0.1c0,0,0,0.1-0.1,0.1c0,0,0,0,0,0.1c0,0,0,0,0,0.1
					c0,0,0,0.1-0.1,0.1c0,0,0,0,0,0.1c0,0,0,0.1,0,0.1c0,0,0,0.1,0,0.1c0,0,0,0,0,0.1c0,0,0,0.1,0,0.1c0,0,0,0.1,0,0.1
					c0,0,0,0,0,0.1c0,0,0,0.1,0,0.1c0,0,0,0.1,0,0.1c0,0,0,0,0,0.1c0,0,0,0.1,0,0.1c0,0,0,0,0,0.1v104.3c0,5.8,2.6,11,6.8,14.5
					c0.1,0.1,0.3,0.2,0.4,0.3c3.2,2.6,7.3,4.1,11.8,4.1h162.9c4.5,0,8.6-1.6,11.8-4.1c0.1-0.1,0.3-0.2,0.4-0.3
					c4.1-3.5,6.8-8.7,6.8-14.5v-69.4c0-1.7-1.3-3-3-3c-1.7,0-3,1.3-3,3v69.3c0,3.3-1.2,6.3-3.2,8.5l-85.4-52.7l88.6-54.7v12.1
					C219.4,123.6,220.7,124.9,222.4,124.9z M118.1,31c4-3.4,9.8-3.4,13.9,0l20,17.1H98.1L118.1,31z M60.7,80.1v21.3H35.8L60.7,80.1z
					 M60.7,107.4v13.9l-22.5-13.9H60.7z M210.6,220.9c-1.3,0.5-2.7,0.7-4.2,0.7H43.6c-1.5,0-2.9-0.3-4.2-0.7l25.9-16
					c1.4-0.9,1.9-2.7,1-4.1c-0.9-1.4-2.7-1.9-4.1-1l-28.2,17.4c-2-2.3-3.2-5.3-3.2-8.5v-98.9l88.6,54.7l-40.6,25.1
					c-1.4,0.9-1.9,2.7-1,4.1c0.6,0.9,1.6,1.4,2.6,1.4c0.5,0,1.1-0.1,1.6-0.4L125,168L210.6,220.9z M183.3,125L183.3,125L125,161
					l-58.3-36v-20.6c0,0,0,0,0,0c0,0,0,0,0,0V61.5c0-4.1,3.3-7.5,7.5-7.5h101.7c4.1,0,7.5,3.3,7.5,7.5V125z M189.3,121.3v-13.9h22.5
					L189.3,121.3z M189.3,101.4V80.1l24.9,21.3H189.3z"/>
				<path class="st2" d="M155.1,117h-54.4c-1.7,0-3,1.3-3,3s1.3,3,3,3h54.4c1.7,0,3-1.3,3-3S156.8,117,155.1,117z"/>
				<path class="st2" d="M155.1,77.4c-1.7,0-3,1.3-3,3v5c0,1.7,1.3,3,3,3c1.7,0,3-1.3,3-3v-5C158.1,78.7,156.8,77.4,155.1,77.4z"/>
				<path class="st2" d="M125,92.2c3.9,0,7.6-1.7,10.2-4.6c1.1-1.3,1-3.2-0.3-4.2c-1.3-1.1-3.2-1-4.2,0.3c-1.4,1.6-3.5,2.6-5.7,2.6
					s-4.2-0.9-5.7-2.6c-1.1-1.3-3-1.4-4.2-0.3c-1.3,1.1-1.4,3-0.3,4.2C117.4,90.6,121.1,92.2,125,92.2z"/>
				<path class="st2" d="M144.4,132h-32.9c-1.7,0-3,1.3-3,3c0,1.7,1.3,3,3,3h32.9c1.7,0,3-1.3,3-3C147.4,133.3,146.1,132,144.4,132z
					"/>
			</g>
		</g>
	</g>
</g>
</svg>
