<?xml version="1.0" encoding="utf-8"?>
<!-- Generator: Adobe Illustrator 23.0.0, SVG Export Plug-In . SVG Version: 6.00 Build 0)  -->
<svg version="1.1" id="Capa_1" xmlns="http://www.w3.org/2000/svg" xmlns:xlink="http://www.w3.org/1999/xlink" x="0px" y="0px"
	 viewBox="0 0 250 250" style="enable-background:new 0 0 250 250;" xml:space="preserve">
<style type="text/css">
	.st0{fill:#136EC2;}
	.st1{opacity:0.22;fill:#136EC2;}
	.st2{fill:#0599D5;}
	.st3{fill:#15CCD5;}
</style>
<g>
	<g>
		<path class="st3" d="M94.8,108.5c-1,1.1-0.9,2.7,0.2,3.7c8.3,7.1,18.9,11,29.9,11c25,0,45.3-19.7,45.3-44s-20.3-44-45.3-44
			S79.7,55,79.7,79.2c0,8.8,2.7,17.3,7.8,24.6c0.8,1.2,2.5,1.5,3.7,0.7c1.2-0.8,1.6-2.4,0.7-3.6c-4.5-6.4-6.8-13.9-6.8-21.7
			c0-21.4,17.9-38.7,39.9-38.7s39.9,17.4,39.9,38.7S147,118,125,118c-9.7,0-19.1-3.4-26.4-9.7C97.5,107.4,95.8,107.5,94.8,108.5z"/>
		<path class="st3" d="M44.5,204.3c0,7,8.4,12.6,25,16.8c14.9,3.7,34.5,5.8,55.4,5.8s40.6-2.1,55.4-5.8c16.6-4.2,25-9.8,25-16.8
			c0-12-26.1-18.7-52.5-21.3c6.5-7.9,12.2-15.8,17.3-23.8c12.2-19.1,20.5-39.9,23.4-58.7c3.7-24-0.9-44.4-13.9-60.7
			c-1.1-1.4-3.1-1.6-4.5-0.6c-1.4,1.1-1.7,3-0.6,4.4c11.8,14.9,16.1,33.7,12.6,56c-2.8,17.9-10.8,37.9-22.5,56.3
			c-5.9,9.3-12.7,18.4-20.6,27.6c0,0-0.1,0.1-0.1,0.1c-4.3,5.1-9,10.2-14,15.3c-0.5,0.5-5.4,5-5.2,5.2c-1.5-1.9-3.5-3.5-5.2-5.2
			c-5-5.1-9.7-10.2-14-15.3c0,0-0.1-0.1-0.1-0.1c-7.8-9.2-14.7-18.3-20.6-27.6c-12.3-19.2-20.4-40.1-22.9-58.7
			c-3.1-23.2,2.4-42.5,16.2-57.4C90.3,27,107.3,19.7,125,19.7c15.2,0,29.9,5.4,41.4,15.2c1.3,1.1,3.4,1,4.5-0.3
			c1.2-1.3,1-3.3-0.3-4.4C158,19.4,141.8,13.4,125,13.4c-19.5,0-38.3,8.1-51.3,22.2c-7.9,8.5-13.4,18.5-16.3,29.7
			c-2.6,10-3.1,21-1.6,32.7c2.6,19.5,11,41.2,23.8,61.2c5.1,8,10.9,15.9,17.3,23.8C70.6,185.6,44.5,192.3,44.5,204.3z M101.9,188.8
			c3.9,4.5,8,9,12.4,13.5c2.8,2.9,5.6,5.7,8.4,8.5c0.6,0.6,1.5,0.9,2.3,0.9c0.8,0,1.6-0.3,2.3-0.9c2.9-2.8,5.7-5.6,8.4-8.4
			c4.4-4.5,8.5-9,12.4-13.5c34.8,2.8,51,10.8,51,15.5c0,1.4-1.7,3.2-4.5,4.9c-3.6,2.1-9,4.1-15.7,5.8c-14.3,3.6-33.5,5.6-53.8,5.6
			s-39.5-2-53.8-5.6c-16-4-20.2-8.7-20.2-10.8C51,199.6,67.2,191.6,101.9,188.8z"/>
	</g>
</g>
</svg>
