<?xml version="1.0" encoding="utf-8"?>
<!-- Generator: Adobe Illustrator 23.0.0, SVG Export Plug-In . SVG Version: 6.00 Build 0)  -->
<svg version="1.1" id="Capa_1" xmlns="http://www.w3.org/2000/svg" xmlns:xlink="http://www.w3.org/1999/xlink" x="0px" y="0px"
	 viewBox="0 0 250 250" style="enable-background:new 0 0 250 250;" xml:space="preserve">
<style type="text/css">
	.st0{fill:#136EC2;}
	.st1{opacity:0.22;fill:#136EC2;}
	.st2{fill:#0599D5;}
	.st3{fill:#15CCD5;}
</style>
<g>
	<g>
		<g>
			<path class="st0" d="M27.2,86.7c1.2,4.5,5.3,7.6,10,7.6c0.7,0,1.3-0.1,2-0.2l20.7-4l15.9-3.5c5.2-0.9,8.8-5.8,8.2-11.1L82,60.7
				c-0.2-1.9,4-3.9,8-4.5c23-3.7,46.4-3.8,69.3-0.2c6.3,1.1,7.7,2.1,8,2.5c0.6,1.6,0.7,3.3,0.3,4.9l-1.4,9.9
				c-0.8,3.2-0.2,6.6,1.5,9.4c2.5,2.6,5.8,4.2,9.4,4.6c2.4,0.5,4.2,0.9,6.1,1.4c2,0.5,3.9,1,6.4,1.5l18.5,3.6
				c3.2,0.9,6.7,0.7,9.7-0.6c3.2-2.1,5.3-5.6,5.7-9.4l0.1-0.5c0.4-1.6,0.8-3.1,1.3-4.7c1.3-3.7,2.1-7.7,2.2-11.7
				c-0.6-7-3.8-13.6-9-18.2c-23.6-23.2-64.5-25.9-93.1-25.9c-65.4,0-90.4,18.8-99.7,34.6c-2.6,4.4-3.3,9.6-2,14.5L27.2,86.7z
				 M31.1,60.8c8.5-14.3,31.7-31.3,93.9-31.3c27.5,0,66.5,2.5,88.4,23.9c4,3.5,6.5,8.3,7,13.6c-0.1,3.2-0.7,6.5-1.9,9.5
				c-0.5,1.7-1,3.4-1.4,5.2l-0.1,0.5c-0.6,2.5-1,4.2-2.2,4.9c-1.7,0.5-3.6,0.4-5.3-0.1L191,83.4c-2.4-0.5-4.2-0.9-6.1-1.4
				c-2-0.5-3.9-1-6.4-1.5c-1.6-0.3-4.4-0.8-5.2-2c-0.5-1.4-0.6-2.9-0.2-4.3l1.4-9.9c0.8-3.3,0.3-6.8-1.4-9.8
				c-2.2-3.1-7.3-4.4-12.4-5.3c-23.7-3.7-47.8-3.7-71.5,0.2c-7.5,1.1-14.6,5.3-13.7,12.1l1.9,14.9c0.1,1.7-1.1,3.3-2.8,3.5
				l-15.9,3.5l-20.6,3.9c-1.8,0.4-3.6-0.6-4.1-2.4l-3.9-14.9C29,66.9,29.5,63.6,31.1,60.8z"/>
			<path class="st0" d="M226.7,178.4c0-0.1-0.1-0.2-0.1-0.3c-0.3-0.8-0.7-1.7-1.3-2.4L182,116.9c-2.6-3.5-6.7-5.5-11-5.6h-8.9
				l-3-24.1c-0.1-3.7-3.1-6.6-6.8-6.6h-10.2c-3.8,0-6.8,3.1-6.8,6.8v27.3c0,1.9,1.5,3.4,3.4,3.4c1.9,0,3.4-1.5,3.4-3.4V87.5h10.2
				c0,0.1,0,0.3,0,0.4l3.4,27.3c0.2,1.7,1.7,3,3.4,3H171c2.2,0,4.2,1,5.5,2.8l39.2,53.1l0,0l0,0l1.5,2.1h0l3.1,4.1l0.2,3v27.1
				c0,5.7-4.6,10.2-10.2,10.2H39.7c-5.7,0-10.2-4.6-10.2-10.2v-24.1l0.2-6.4l3.1-3.6h0L73.5,121c1.3-1.7,3.3-2.8,5.5-2.8h11.9
				c1.7,0,3.2-1.3,3.4-3l3.4-27.3c0-0.1,0-0.3,0-0.4h10.2v27.3c0,1.9,1.5,3.4,3.4,3.4H125c1.9,0,3.4-1.5,3.4-3.4
				c0-1.9-1.5-3.4-3.4-3.4h-10.2V87.5c0-3.8-3.1-6.8-6.8-6.8H97.7c-3.7,0-6.7,2.9-6.8,6.6l-3,24.1H79c-4.3,0-8.4,2.1-11,5.6
				l-43.4,58.9c-0.5,0.7-1,1.5-1.3,2.4c0,0.1-0.1,0.2-0.1,0.2c-0.4,1.1-0.6,2.3-0.6,3.4v28.5c0,9.4,7.6,17,17.1,17.1h170.6
				c9.4,0,17-7.6,17.1-17.1v-28.5C227.3,180.7,227.1,179.5,226.7,178.4z"/>
			<path class="st0" d="M102.5,135c3.1-1.3,6.5-2.3,10-2.9c8.2-1.4,16.8-1.4,25,0c1.2,0.2,2.4-0.1,3.3-0.8c0.8-0.7,1.1-1.7,0.8-2.6
				c-0.4-0.9-1.3-1.6-2.5-1.8c-9.3-1.6-18.9-1.6-28.1,0c-4.1,0.7-8,1.8-11.7,3.4c-3.2,1.3-6.1,3.1-8.4,5.3c-4.5,4.2-4.5,10.3,0,14.5
				c2.3,2.2,5.1,4,8.4,5.3c3.7,1.5,7.6,2.7,11.7,3.4c9.3,1.6,18.9,1.6,28.1,0c4.1-0.7,8-1.8,11.7-3.4c3.2-1.3,6.1-3.1,8.4-5.3
				c4.5-4.2,4.5-10.3,0-14.5c-0.7-0.8-1.9-1.2-3.2-1.1c-1.2,0.1-2.3,0.7-2.7,1.6c-0.5,0.9-0.3,1.9,0.5,2.6c2.6,2.3,2.6,5.8,0,8.1
				c-1.7,1.6-3.8,2.9-6.2,3.9c-3.1,1.3-6.5,2.3-10,2.9c-8.2,1.4-16.8,1.4-25,0c-3.5-0.6-6.8-1.6-10-2.9c-2.4-1-4.5-2.3-6.3-3.9
				c-2.6-2.3-2.6-5.8,0-8.1C98,137.3,100.1,136,102.5,135z"/>
			<rect x="35" y="164.1" class="st0" width="179.3" height="6.2"/>
		</g>
		<g>
			<g>
				<g>
					<path class="st0" d="M88.7,180.5c-2.7,0-4.8,2.2-4.8,4.8v6.5c0,2.7,2.2,4.8,4.8,4.8c2.7,0,4.8-2.2,4.8-4.8v-6.5
						C93.5,182.6,91.3,180.5,88.7,180.5z"/>
				</g>
			</g>
			<g>
				<g>
					<path class="st0" d="M160.3,180.5c-2.7,0-4.8,2.2-4.8,4.8v6.5c0,2.7,2.2,4.8,4.8,4.8c2.7,0,4.8-2.2,4.8-4.8v-6.5
						C165.1,182.6,163,180.5,160.3,180.5z"/>
				</g>
			</g>
			<g>
				<g>
					<path class="st0" d="M134.4,203.3c-1.4-1.3-3.6-1.1-4.9,0.3c-0.9,1-2.3,1.6-3.8,1.6c-1.5,0-2.8-0.6-3.8-1.6
						c-1.3-1.4-3.4-1.6-4.9-0.3c-1.4,1.3-1.6,3.4-0.3,4.9c2.2,2.5,5.5,4,9,4s6.7-1.5,9-4C136,206.8,135.9,204.6,134.4,203.3z"/>
				</g>
			</g>
			<ellipse class="st1" cx="86.5" cy="201.5" rx="7.8" ry="3.5"/>
			<ellipse class="st1" cx="163.3" cy="201.5" rx="7.8" ry="3.5"/>
		</g>
	</g>
</g>
</svg>
