<?xml version="1.0" encoding="utf-8"?>
<!-- Generator: Adobe Illustrator 22.0.0, SVG Export Plug-In . SVG Version: 6.00 Build 0)  -->
<svg version="1.1" baseProfile="tiny" xmlns="http://www.w3.org/2000/svg" xmlns:xlink="http://www.w3.org/1999/xlink" x="0px"
	 y="0px" width="500.002px" height="500px" viewBox="0 0 500.002 500" xml:space="preserve">
<g id="youtube">
	<g>
		<path fill="#FFFFFF" d="M280.044,297.684c-0.962,0.485-1.886,1.228-2.81,2.234v45.623c1.109,1.192,2.186,2.059,3.224,2.58
			c2.21,1.121,5.463,1.214,6.954-0.753c0.799-1.029,1.192-2.705,1.192-5.042v-37.818c0-2.464-0.499-4.35-1.457-5.622
			C285.503,296.712,282.425,296.48,280.044,297.684z"/>
		<path fill="#FFFFFF" d="M332.978,297.233c-5.044,0-6.083,3.552-6.083,8.584v7.403h12.028v-7.403
			C338.923,300.856,337.859,297.233,332.978,297.233z"/>
		<path fill="#FFFFFF" d="M291.648,219.277c4.325,0,10.327-2.244,16.533-9.601v8.49h14.283v-76.881h-14.283v58.35
			c-1.751,2.186-5.624,5.76-8.411,5.76c-3.065,0-3.808-2.081-3.808-5.171v-58.952h-14.297v64.271
			C281.665,213.134,283.989,219.277,291.648,219.277z"/>
		<path fill="#FFFFFF" d="M228.037,198.987c0,13.546,7.089,20.603,20.949,20.603c11.495,0,20.544-7.683,20.544-20.603V161.31
			c0-12.042-8.955-20.661-20.544-20.661c-12.6,0-20.949,8.319-20.949,20.661V198.987z M242.75,162.57
			c0-4.211,1.94-7.334,5.958-7.334c4.382,0,6.258,3.033,6.258,7.334v35.769c0,4.189-2.132,7.276-5.98,7.276
			c-3.945,0-6.236-3.226-6.236-7.276V162.57z"/>
		<polygon fill="#FFFFFF" points="193.933,218.166 210.035,218.166 210.035,175.884 228.763,113.94 212.416,113.94 202.101,155.594 
			190.992,113.94 174.787,113.94 193.933,175.884 		"/>
		<path fill="#FFFFFF" d="M341.713,235.657h-168.49c-18.105,0-32.772,14.681-32.772,32.784v82.803
			c0,18.107,14.667,32.772,32.772,32.772h168.49c18.103,0,32.772-14.665,32.772-32.772v-82.803
			C374.485,250.338,359.816,235.657,341.713,235.657z M195.678,359.482h-15.325V274.63h-15.875v-14.413h47.06v14.413h-15.86V359.482
			z M250.209,359.482h-13.614v-8.073c-2.51,2.971-5.124,5.239-7.832,6.801c-7.334,4.199-17.412,4.118-17.412-10.746v-61.196h13.618
			v56.116c0,2.951,0.717,4.941,3.621,4.941c2.649,0,6.35-3.404,8.005-5.485v-55.572h13.614V359.482z M302.615,344.316
			c0,9.059-3.389,16.092-12.447,16.092c-4.988,0-9.142-1.815-12.934-6.547v5.622h-13.745v-99.265h13.745v31.963
			c3.065-3.748,7.238-6.837,12.101-6.837c9.969,0,13.28,8.421,13.28,18.348V344.316z M352.934,324.593h-26.039v13.814
			c0,5.493,0.461,10.235,5.946,10.235c5.748,0,6.083-3.865,6.083-10.235v-5.09h14.011v5.507c0,14.099-6.062,22.647-20.405,22.647
			c-13.006,0-19.644-9.474-19.644-22.647v-32.866c0-12.725,8.389-21.54,20.673-21.54c13.059,0,19.377,8.295,19.377,21.54V324.593z"
			/>
		<path fill="#FFFFFF" d="M250,0C112.151,0,0,112.151,0,250c0,137.851,112.151,250,250,250c137.851,0,250.002-112.149,250.002-250
			C500.002,112.151,387.851,0,250,0z M250,464.525c-118.477,0-214.525-96.047-214.525-214.525S131.523,35.477,250,35.477
			c118.479,0,214.527,96.045,214.527,214.523S368.479,464.525,250,464.525z"/>
	</g>
</g>
<g id="facebook" display="none">
	<g display="inline">
		<path fill="#FFFFFF" d="M215.421,170.291c0,30.089,0,36.81,0,36.81h-28.643v46.747h28.643V391.16h55.062v-137.89h38.42
			l4.095-46.168h-42.514c0,0,0-17.236,0-26.293c0-10.887,2.188-15.19,12.715-15.19c8.469,0,29.799,0,29.799,0v-47.915
			c0,0-31.417,0-38.124,0C233.895,117.703,215.421,135.75,215.421,170.291z"/>
		<path fill="#FFFFFF" d="M250,0C112.151,0-0.001,112.15-0.001,250.001S112.151,500,250,500
			c137.851,0,250.003-112.148,250.003-249.999S387.851,0,250,0z M250,464.526c-118.478,0-214.523-96.047-214.523-214.523
			c0-118.48,96.045-214.527,214.523-214.527c118.48,0,214.525,96.047,214.525,214.527C464.525,368.479,368.48,464.526,250,464.526z"
			/>
	</g>
</g>
<g id="twitter" display="none">
	<g display="inline">
		<path fill="#FFFFFF" d="M379.879,166.207c-9.556,5.667-20.144,9.786-31.397,12.008c-9.024-9.613-21.875-15.617-36.106-15.617
			c-31.914,0-55.376,29.789-48.167,60.721c-41.101-2.06-77.542-21.749-101.929-51.676c-12.952,22.234-6.719,51.317,15.307,66.031
			c-8.109-0.254-15.747-2.488-22.407-6.187c-0.532,22.914,15.881,44.337,39.666,49.117c-6.966,1.896-14.588,2.324-22.324,0.842
			c6.28,19.656,24.546,33.942,46.19,34.348c-20.789,16.297-46.977,23.576-73.214,20.474c21.885,14.034,47.881,22.224,75.806,22.224
			c91.813,0,143.684-77.552,140.564-147.11c9.654-6.966,18.045-15.676,24.672-25.6c-8.874,3.932-18.404,6.593-28.397,7.784
			C368.341,187.458,376.188,177.764,379.879,166.207z"/>
		<path fill="#FFFFFF" d="M250.001,0C112.152,0-0.001,112.151-0.001,250c0,137.851,112.152,250,250.002,250
			s250.002-112.149,250.002-250C500.003,112.151,387.85,0,250.001,0z M250.003,464.525c-118.48,0-214.524-96.045-214.524-214.525
			c0-118.478,96.045-214.523,214.524-214.523c118.476,0,214.523,96.045,214.523,214.523
			C464.526,368.48,368.479,464.525,250.003,464.525z"/>
	</g>
</g>
</svg>
